<svg width="24" height="24" viewBox="0 0 24 24" fill="none" xmlns="http://www.w3.org/2000/svg">
<g id="Iconex/Two Tone/Cart">
<g id="Cart">
<path id="Subtract" opacity="0.3" fill-rule="evenodd" clip-rule="evenodd" d="M2.14708 2.26471C1.74091 2.18348 1.34579 2.44689 1.26456 2.85306C1.18332 3.25923 1.44674 3.65435 1.8529 3.73558L2.90227 3.94545C3.44101 4.0532 3.84625 4.50011 3.90092 5.0468L4.05445 6.58215L5.04393 14.8278C5.20979 16.2099 6.38229 17.2501 7.77434 17.2501H16.7673C18.7175 17.2501 20.4174 15.9229 20.8904 14.0309L22.0131 9.53988C22.4944 7.61488 21.0384 5.75014 19.0542 5.75014H5.47873L5.39347 4.89754C5.2732 3.69482 4.38169 2.71163 3.19644 2.47458L2.14708 2.26471Z" fill="#2B3F6C"/>
<path id="Line" d="M12.9998 13.5H8.99985" stroke="#2B3F6C" stroke-width="1.5" stroke-linecap="round" stroke-linejoin="round"/>
<circle id="Ellipse 39" cx="8.5" cy="20" r="1.5" fill="#2B3F6C"/>
<circle id="Ellipse 40" cx="17.5" cy="20" r="1.5" fill="#2B3F6C"/>
</g>
</g>
</svg>
