<svg width="25" height="24" viewBox="0 0 25 24" fill="none" xmlns="http://www.w3.org/2000/svg">
<g id="Iconex/Two Tone/Sale">
<g id="Sale">
<path id="Subtract" opacity="0.3" fill-rule="evenodd" clip-rule="evenodd" d="M14.0745 2.23646C14.6697 1.99011 15.555 1.64732 16.4344 1.99334C16.5556 2.04104 16.6757 2.09086 16.7947 2.14278C17.6603 2.52039 18.0437 3.38814 18.2904 3.98298C18.3345 4.08933 18.3748 4.18927 18.4132 4.28474C18.4993 4.49824 18.5763 4.68948 18.6671 4.8798C18.7938 5.14538 18.9137 5.33225 19.0405 5.45912C19.1674 5.586 19.3543 5.7059 19.6199 5.83257C19.8102 5.92335 20.0014 6.00037 20.215 6.08641C20.3104 6.12484 20.4105 6.16515 20.5167 6.20922C21.1116 6.45591 21.9794 6.83932 22.3571 7.70486C22.4091 7.82404 22.459 7.94435 22.5068 8.06574C22.8528 8.94516 22.51 9.8304 22.2637 10.4256C22.2196 10.532 22.1774 10.6312 22.137 10.7259C22.0469 10.9377 21.966 11.1276 21.8955 11.3264C21.7972 11.6039 21.7498 11.8208 21.7498 12.0003C21.7498 12.1798 21.7972 12.3967 21.8955 12.6742C21.966 12.873 22.0467 13.0626 22.1369 13.2744C22.1772 13.3691 22.2196 13.4686 22.2637 13.575C22.51 14.1702 22.8528 15.0555 22.5068 15.9349C22.4591 16.0559 22.4094 16.1759 22.3575 16.2948C21.9799 17.1605 21.1119 17.5439 20.517 17.7906C20.4108 17.8347 20.3109 17.8749 20.2156 17.9133C20.002 17.9993 19.8103 18.0765 19.62 18.1673C19.3543 18.294 19.1674 18.4139 19.0405 18.5408C18.9137 18.6677 18.7938 18.8546 18.6671 19.1202C18.5763 19.3105 18.4993 19.5017 18.4133 19.7152C18.3749 19.8107 18.3345 19.9109 18.2904 20.0172C18.0437 20.6122 17.6603 21.4802 16.7946 21.8579C16.6757 21.9098 16.5556 21.9596 16.4344 22.0073C15.555 22.3533 14.6697 22.0105 14.0745 21.7642C13.9681 21.7201 13.8688 21.6778 13.7741 21.6375C13.5623 21.5473 13.3725 21.4665 13.1737 21.396C12.8963 21.2977 12.6793 21.2503 12.4998 21.2503C12.3204 21.2503 12.1034 21.2977 11.8259 21.396C11.6272 21.4664 11.4377 21.5471 11.226 21.6373C11.1312 21.6777 11.0317 21.7201 10.9251 21.7642C10.3299 22.0105 9.44468 22.3533 8.56527 22.0073C8.44407 21.9596 8.32395 21.9098 8.20496 21.8579C7.33932 21.4802 6.95589 20.6123 6.7092 20.0174C6.6651 19.911 6.62484 19.8111 6.58637 19.7156C6.50034 19.502 6.42332 19.3108 6.33253 19.1204C6.20585 18.8548 6.08595 18.6679 5.95907 18.541C5.83219 18.4142 5.6453 18.2943 5.37968 18.1676C5.18936 18.0768 4.99822 17.9998 4.78472 17.9138C4.6894 17.8754 4.58889 17.8349 4.48273 17.7909C3.88781 17.5442 3.0199 17.1608 2.64226 16.2951C2.59035 16.1762 2.54054 16.0561 2.49286 15.9349C2.14683 15.0555 2.48962 14.1702 2.73597 13.575C2.78005 13.4685 2.82231 13.3693 2.86268 13.2745C2.95287 13.0627 3.03366 12.873 3.1041 12.6742C3.20242 12.3967 3.24981 12.1798 3.24981 12.0003C3.24981 11.8208 3.20242 11.6039 3.1041 11.3264C3.03366 11.1276 2.95292 10.938 2.86274 10.7263C2.82235 10.6314 2.78007 10.5321 2.73597 10.4256C2.48962 9.83039 2.14683 8.94515 2.49286 8.06573C2.54058 7.94445 2.59044 7.82424 2.6424 7.70516C3.02005 6.83958 3.88791 6.45616 4.48281 6.20946C4.58913 6.16537 4.68906 6.12512 4.78452 6.08666C4.99808 6.00063 5.18935 5.92358 5.37971 5.8328C5.64532 5.70612 5.8322 5.58622 5.95907 5.45934C6.08595 5.33247 6.20585 5.14559 6.33253 4.87999C6.42331 4.68964 6.50033 4.49847 6.58636 4.28493C6.62482 4.18945 6.6651 4.08946 6.70921 3.98311C6.95591 3.38823 7.33935 2.52039 8.20494 2.14277C8.32393 2.09086 8.44404 2.04104 8.56524 1.99335C9.44465 1.64733 10.3299 1.99011 10.9251 2.23646C11.0316 2.28056 11.1309 2.32284 11.2258 2.36323C11.4375 2.45341 11.6271 2.53415 11.8259 2.60459C12.1034 2.70291 12.3203 2.75031 12.4998 2.75031C12.6793 2.75031 12.8962 2.70291 13.1737 2.60459C13.3725 2.53415 13.5621 2.45341 13.7738 2.36323C13.8687 2.32284 13.968 2.28055 14.0745 2.23646ZM9.73867 10.3581C10.0478 10.6672 10.549 10.6672 10.8581 10.3581C11.1672 10.049 11.1672 9.54779 10.8581 9.23867C10.549 8.92956 10.0478 8.92956 9.73867 9.23867C9.42956 9.54779 9.42956 10.049 9.73867 10.3581ZM14.1416 14.761C14.4508 15.0701 14.9519 15.0701 15.2611 14.761C15.5702 14.4519 15.5702 13.9507 15.2611 13.6416C14.9519 13.3325 14.4508 13.3325 14.1416 13.6416C13.8325 13.9507 13.8325 14.4519 14.1416 14.761ZM15.269 9.23056C15.5619 9.52346 15.5619 9.99833 15.269 10.2912L10.7914 14.7688C10.4985 15.0617 10.0236 15.0617 9.73073 14.7688C9.43783 14.4759 9.43783 14.0011 9.73073 13.7082L14.2083 9.23056C14.5012 8.93767 14.9761 8.93767 15.269 9.23056Z" fill="#2B3F6C"/>
<g id="Subtract_2">
<path d="M9.73867 10.3581C10.0478 10.6672 10.549 10.6672 10.8581 10.3581C11.1672 10.049 11.1672 9.54779 10.8581 9.23867C10.549 8.92956 10.0478 8.92956 9.73867 9.23867C9.42956 9.54779 9.42956 10.049 9.73867 10.3581Z" fill="#2B3F6C"/>
<path d="M14.1416 14.761C14.4508 15.0701 14.9519 15.0701 15.2611 14.761C15.5702 14.4519 15.5702 13.9507 15.2611 13.6416C14.9519 13.3325 14.4508 13.3325 14.1416 13.6416C13.8325 13.9507 13.8325 14.4519 14.1416 14.761Z" fill="#2B3F6C"/>
<path d="M15.269 9.23056C15.5619 9.52346 15.5619 9.99833 15.269 10.2912L10.7914 14.7688C10.4985 15.0617 10.0236 15.0617 9.73073 14.7688C9.43783 14.4759 9.43783 14.0011 9.73073 13.7082L14.2083 9.23056C14.5012 8.93767 14.9761 8.93767 15.269 9.23056Z" fill="#2B3F6C"/>
</g>
</g>
</g>
</svg>
